<svg xmlns="http://www.w3.org/2000/svg" width="241" height="54" viewBox="0 0 241 54">
  <defs>
    <style>
      .cls-1 {
        fill: #fff;
        fill-rule: evenodd;
      }
    </style>
  </defs>
  <path id="Logo" class="cls-1" d="M437.919,5419.4l28.619-.25-20.555-35.19-16.792,29.93-4.52.04,19.305-33.57-3.229-5.53L415,5419.6l17.439-.15,13.641-24.31,10.81,18.5-16.649.15Zm44.757,5.59-31.309-53.77,0.37-.21,31.31,53.76Zm2.808-33.18v-0.05a9.528,9.528,0,0,1,19.055-.05v0.05A9.528,9.528,0,0,1,485.484,5391.81Zm14.051,0v-0.05a4.667,4.667,0,0,0-4.549-4.91,4.579,4.579,0,0,0-4.473,4.86v0.05a4.669,4.669,0,0,0,4.524,4.91A4.583,4.583,0,0,0,499.535,5391.81Zm10.089-9.15H514.2l7.278,9.62v-9.62h4.852v18.19h-4.3l-7.556-9.97v9.97h-4.852v-18.19Zm26.691,4.42h-5.307v-4.42h15.517v4.42h-5.307v13.77h-4.9v-13.77Zm14.99-4.42h4.929v18.19H551.3v-18.19Zm10.086,9.15v-0.05a9.218,9.218,0,0,1,9.325-9.46,8.6,8.6,0,0,1,7.506,3.79l-3.69,2.94a4.7,4.7,0,0,0-3.866-2.13c-2.476,0-4.22,2.16-4.22,4.81v0.05c0,2.73,1.744,4.86,4.22,4.86a4.813,4.813,0,0,0,3.993-2.21l3.69,2.7a8.849,8.849,0,0,1-7.835,4.11A9.116,9.116,0,0,1,561.391,5391.81Zm21.586-9.15h14.229v4.29H587.83v2.76h8.491v3.97H587.83v2.89h9.5v4.28H582.977v-18.19Zm19.388,0h4.9v13.78h8.567v4.41h-13.47v-18.19Zm18.1,0h4.9v13.78h8.568v4.41h-13.47v-18.19Zm16.481,9.15v-0.05a9.528,9.528,0,0,1,19.055-.05v0.05A9.528,9.528,0,0,1,636.945,5391.81Zm14.051,0v-0.05a4.667,4.667,0,0,0-4.549-4.91,4.579,4.579,0,0,0-4.473,4.86v0.05a4.668,4.668,0,0,0,4.524,4.91A4.583,4.583,0,0,0,651,5391.81Zm-184.572,4.67v-6.02l4.5,7.07h0.1l4.524-7.12v10.44h4.877v-18.19h-5.181l-4.22,7.05-4.22-7.05h-5.181v5.58Zm20.07,14.23h0.678v6.06h-0.678v-6.06Zm5.875,0h0.636l3.786,4.85v-4.85h0.661v6.06h-0.541l-3.881-4.97v4.97h-0.661v-6.06Zm11.811,0.63h-2.018v-0.63h4.722v0.63h-2.018v5.43H504.18v-5.43Zm7.414-.63h4.345v0.62h-3.666v2.07h3.279v0.62h-3.279v2.12h3.708v0.63h-4.387v-6.06Zm9.191,0h2.585a2.359,2.359,0,0,1,1.708.6,1.7,1.7,0,0,1,.463,1.2v0.01a1.765,1.765,0,0,1-1.63,1.77l1.845,2.48h-0.833l-1.742-2.36h-1.717v2.36h-0.679v-6.06Zm2.524,3.09a1.337,1.337,0,0,0,1.545-1.25v-0.02a1.278,1.278,0,0,0-1.536-1.19h-1.854v2.46h1.845Zm7.123-3.09h0.636l3.786,4.85v-4.85h0.661v6.06h-0.541l-3.881-4.97v4.97h-0.661v-6.06Zm12.446-.05h0.635l2.739,6.11h-0.73l-0.7-1.6h-3.271l-0.713,1.6h-0.695Zm1.674,3.89-1.365-3.09-1.374,3.09h2.739Zm7.14-3.21h-2.018v-0.63H554.4v0.63h-2.018v5.43h-0.686v-5.43Zm7.475-.63h0.677v6.06h-0.677v-6.06Zm5.609,3.04v-0.01a3.064,3.064,0,0,1,3.074-3.14,3.032,3.032,0,0,1,3.056,3.12v0.02A3.066,3.066,0,1,1,564.776,5413.75Zm5.426,0v-0.01a2.406,2.406,0,0,0-2.37-2.51,2.374,2.374,0,0,0-2.352,2.49v0.02a2.4,2.4,0,0,0,2.37,2.5A2.374,2.374,0,0,0,570.2,5413.75Zm5.577-3.04h0.636l3.786,4.85v-4.85h0.661v6.06h-0.541l-3.881-4.97v4.97h-0.661v-6.06Zm12.446-.05h0.636l2.738,6.11H590.87l-0.7-1.6H586.9l-0.713,1.6h-0.7Zm1.675,3.89-1.366-3.09-1.373,3.09H589.9Zm6.324-3.84H596.9v5.43h3.382v0.63h-4.061v-6.06Zm14.5,3.04v-0.01a3.03,3.03,0,0,1,3.013-3.14,3.153,3.153,0,0,1,2.24.81l-0.437.52a2.536,2.536,0,0,0-1.828-.7,2.364,2.364,0,0,0-2.285,2.49v0.02a2.337,2.337,0,0,0,2.379,2.52,2.8,2.8,0,0,0,1.734-.61v-1.51h-1.828v-0.61h2.48v2.41a3.588,3.588,0,0,1-2.413.93A2.957,2.957,0,0,1,610.725,5413.75Zm10.436-3.04h2.585a2.359,2.359,0,0,1,1.708.6,1.7,1.7,0,0,1,.464,1.2v0.01a1.765,1.765,0,0,1-1.631,1.77l1.845,2.48H625.3l-1.742-2.36H621.84v2.36h-0.679v-6.06Zm2.524,3.09a1.338,1.338,0,0,0,1.546-1.25v-0.02a1.279,1.279,0,0,0-1.537-1.19H621.84v2.46h1.845Zm6.857-.05v-0.01a3.063,3.063,0,0,1,3.073-3.14,3.032,3.032,0,0,1,3.056,3.12v0.02A3.065,3.065,0,1,1,630.542,5413.75Zm5.425,0v-0.01a2.4,2.4,0,0,0-2.369-2.51,2.375,2.375,0,0,0-2.353,2.49v0.02a2.4,2.4,0,0,0,2.37,2.5A2.374,2.374,0,0,0,635.967,5413.75Zm5.484,0.48v-3.52h0.678v3.48a1.777,1.777,0,0,0,1.837,2.04,1.738,1.738,0,0,0,1.812-2v-3.52h0.678v3.47A2.507,2.507,0,1,1,641.451,5414.23Zm10.05-3.52h2.25a1.957,1.957,0,0,1,2.249,1.92v0.02a2.08,2.08,0,0,1-2.361,1.98H652.18v2.14H651.5v-6.06Zm2.164,3.29a1.425,1.425,0,0,0,1.648-1.33v-0.02a1.362,1.362,0,0,0-1.614-1.31H652.18V5414h1.485Z" transform="translate(-415 -5371)"/>
</svg>
